<svg width="566" height="436" viewBox="0 0 566 436" fill="none" xmlns="http://www.w3.org/2000/svg">
<path fill-rule="evenodd" clip-rule="evenodd" d="M855.363 232.456C869.036 211.969 897.488 211.969 911.161 232.456C920.816 246.923 938.427 249.268 950.496 237.695C962.565 226.121 964.522 205.011 954.867 190.544C918.787 136.485 847.736 136.485 811.657 190.544C797.985 211.031 769.532 211.031 755.86 190.544C719.781 136.485 648.73 136.485 612.651 190.544C598.978 211.031 570.526 211.031 556.853 190.544C547.198 176.077 529.587 173.732 517.518 185.305C505.449 196.879 503.492 217.989 513.147 232.456C549.226 286.515 620.277 286.515 656.356 232.456C670.029 211.969 698.481 211.969 712.154 232.456C748.233 286.515 819.284 286.515 855.363 232.456Z" fill="#00FFE0"/>
<path fill-rule="evenodd" clip-rule="evenodd" d="M457.349 232.456C471.022 211.969 499.474 211.969 513.147 232.456C522.802 246.923 540.413 249.268 552.482 237.695C564.551 226.121 566.508 205.011 556.853 190.544C520.774 136.485 449.723 136.485 413.644 190.544C399.971 211.031 371.519 211.031 357.846 190.544C321.767 136.485 250.716 136.485 214.637 190.544C200.964 211.031 172.512 211.031 158.839 190.544C149.184 176.077 131.573 173.732 119.504 185.305C107.435 196.879 105.478 217.989 115.133 232.456C151.213 286.515 222.264 286.515 258.343 232.456C272.015 211.969 300.468 211.969 314.14 232.456C350.219 286.515 421.27 286.515 457.349 232.456Z" fill="#00FFE0"/>
<path fill-rule="evenodd" clip-rule="evenodd" d="M848.079 225.471C865.486 199.389 901.038 199.389 918.445 225.471C924.882 235.115 936.623 236.679 944.669 228.963C952.715 221.247 954.019 207.174 947.583 197.53C915.238 149.066 851.287 149.066 818.942 197.53C801.535 223.611 765.983 223.611 748.576 197.53C716.231 149.066 652.28 149.066 619.935 197.53C602.528 223.611 566.976 223.611 549.569 197.53C543.132 187.885 531.392 186.321 523.346 194.037C515.3 201.753 513.995 215.826 520.432 225.471C552.776 273.934 616.728 273.934 649.072 225.471C666.479 199.389 702.032 199.389 719.439 225.471C751.783 273.934 815.734 273.934 848.079 225.471Z" fill="#FF5F00"/>
<path fill-rule="evenodd" clip-rule="evenodd" d="M450.066 225.471C467.473 199.389 503.025 199.389 520.432 225.471C526.869 235.115 538.609 236.679 546.655 228.963C554.701 221.247 556.006 207.174 549.569 197.53C517.224 149.066 453.273 149.066 420.929 197.53C403.522 223.611 367.969 223.611 350.562 197.53C318.218 149.066 254.266 149.066 221.922 197.53C204.515 223.611 168.963 223.611 151.556 197.53C145.119 187.885 133.378 186.321 125.332 194.037C117.286 201.753 115.982 215.826 122.418 225.471C154.763 273.934 218.714 273.934 251.059 225.471C268.466 199.389 304.018 199.389 321.425 225.471C353.77 273.934 417.721 273.934 450.066 225.471Z" fill="#FF5F00"/>
<path fill-rule="evenodd" clip-rule="evenodd" d="M840.795 218.485C861.937 186.808 904.589 186.808 925.73 218.485C928.949 223.308 934.819 224.089 938.842 220.232C942.865 216.374 943.517 209.337 940.299 204.515C911.689 161.647 854.837 161.647 826.227 204.515C805.085 236.192 762.433 236.192 741.292 204.515C712.682 161.647 655.83 161.647 627.22 204.515C606.079 236.192 563.427 236.192 542.285 204.515C539.067 199.692 533.196 198.911 529.173 202.768C525.15 206.626 524.498 213.663 527.717 218.485C556.327 261.353 613.178 261.353 641.789 218.485C662.93 186.808 705.582 186.808 726.723 218.485C755.334 261.353 812.185 261.353 840.795 218.485Z" fill="#FFF1E2"/>
<path fill-rule="evenodd" clip-rule="evenodd" d="M442.782 218.485C463.923 186.808 506.575 186.808 527.717 218.485C530.935 223.308 536.805 224.089 540.828 220.232C544.851 216.374 545.503 209.337 542.285 204.515C513.675 161.647 456.823 161.647 428.213 204.515C407.072 236.192 364.42 236.192 343.278 204.515C314.668 161.647 257.817 161.647 229.206 204.515C208.065 236.192 165.413 236.192 144.271 204.515C141.053 199.692 135.183 198.911 131.16 202.768C127.137 206.626 126.484 213.663 129.703 218.485C158.313 261.353 215.165 261.353 243.775 218.485C264.916 186.808 307.568 186.808 328.71 218.485C357.32 261.353 414.171 261.353 442.782 218.485Z" fill="#FFF1E2"/>
<path fill-rule="evenodd" clip-rule="evenodd" d="M746.363 395.456C760.036 374.969 788.488 374.969 802.161 395.456C811.816 409.923 829.427 412.268 841.496 400.695C853.565 389.121 855.522 368.011 845.867 353.544C809.787 299.485 738.736 299.485 702.657 353.544C688.985 374.031 660.532 374.031 646.86 353.544C610.781 299.485 539.73 299.485 503.651 353.544C489.978 374.031 461.526 374.031 447.853 353.544C438.198 339.077 420.587 336.732 408.518 348.305C396.449 359.879 394.492 380.989 404.147 395.456C440.226 449.515 511.277 449.515 547.356 395.456C561.029 374.969 589.481 374.969 603.154 395.456C639.233 449.515 710.284 449.515 746.363 395.456Z" fill="#00FFE0"/>
<path fill-rule="evenodd" clip-rule="evenodd" d="M348.349 395.456C362.022 374.969 390.474 374.969 404.147 395.456C413.802 409.923 431.413 412.268 443.482 400.695C455.551 389.121 457.508 368.011 447.853 353.544C411.774 299.485 340.723 299.485 304.644 353.544C290.971 374.031 262.519 374.031 248.846 353.544C212.767 299.485 141.716 299.485 105.637 353.544C91.9643 374.031 63.5118 374.031 49.8392 353.544C40.184 339.077 22.5731 336.732 10.504 348.305C-1.56498 359.879 -3.52173 380.989 6.13348 395.456C42.2126 449.515 113.264 449.515 149.343 395.456C163.015 374.969 191.468 374.969 205.14 395.456C241.219 449.515 312.27 449.515 348.349 395.456Z" fill="#00FFE0"/>
<path fill-rule="evenodd" clip-rule="evenodd" d="M739.079 388.471C756.486 362.389 792.038 362.389 809.445 388.471C815.882 398.115 827.623 399.679 835.669 391.963C843.715 384.247 845.019 370.174 838.583 360.53C806.238 312.066 742.287 312.066 709.942 360.53C692.535 386.611 656.983 386.611 639.576 360.53C607.231 312.066 543.28 312.066 510.935 360.53C493.528 386.611 457.976 386.611 440.569 360.53C434.132 350.885 422.392 349.321 414.346 357.037C406.3 364.753 404.995 378.826 411.432 388.471C443.776 436.934 507.728 436.934 540.072 388.471C557.479 362.389 593.032 362.389 610.439 388.471C642.783 436.934 706.734 436.934 739.079 388.471Z" fill="#FF5F00"/>
<path fill-rule="evenodd" clip-rule="evenodd" d="M341.066 388.471C358.473 362.389 394.025 362.389 411.432 388.471C417.869 398.115 429.609 399.679 437.655 391.963C445.701 384.247 447.006 370.174 440.569 360.53C408.224 312.066 344.273 312.066 311.929 360.53C294.522 386.611 258.969 386.611 241.562 360.53C209.218 312.066 145.266 312.066 112.922 360.53C95.5147 386.611 59.9626 386.611 42.5556 360.53C36.1188 350.885 24.3781 349.321 16.3321 357.037C8.28612 364.753 6.98162 378.826 13.4184 388.471C45.7631 436.934 109.714 436.934 142.059 388.471C159.466 362.389 195.018 362.389 212.425 388.471C244.77 436.934 308.721 436.934 341.066 388.471Z" fill="#FF5F00"/>
<path fill-rule="evenodd" clip-rule="evenodd" d="M731.795 381.485C752.937 349.808 795.589 349.808 816.73 381.485C819.949 386.308 825.819 387.089 829.842 383.232C833.865 379.374 834.517 372.337 831.299 367.515C802.689 324.647 745.837 324.647 717.227 367.515C696.085 399.192 653.433 399.192 632.292 367.515C603.682 324.647 546.83 324.647 518.22 367.515C497.079 399.192 454.427 399.192 433.285 367.515C430.067 362.692 424.196 361.911 420.173 365.768C416.15 369.626 415.498 376.663 418.717 381.485C447.327 424.353 504.178 424.353 532.789 381.485C553.93 349.808 596.582 349.808 617.723 381.485C646.334 424.353 703.185 424.353 731.795 381.485Z" fill="#FFF1E2"/>
<path fill-rule="evenodd" clip-rule="evenodd" d="M333.782 381.485C354.923 349.808 397.575 349.808 418.717 381.485C421.935 386.308 427.805 387.089 431.828 383.232C435.851 379.374 436.503 372.337 433.285 367.515C404.675 324.647 347.823 324.647 319.213 367.515C298.072 399.192 255.42 399.192 234.278 367.515C205.668 324.647 148.817 324.647 120.206 367.515C99.0648 399.192 56.4129 399.192 35.2715 367.515C32.0531 362.692 26.1828 361.911 22.1597 365.768C18.1367 369.626 17.4845 376.663 20.7029 381.485C49.3131 424.353 106.165 424.353 134.775 381.485C155.916 349.808 198.568 349.808 219.71 381.485C248.32 424.353 305.171 424.353 333.782 381.485Z" fill="#FFF1E2"/>
<path fill-rule="evenodd" clip-rule="evenodd" d="M569.552 73.7408C581.78 55.4197 607.227 55.4197 619.455 73.7408C628.091 86.6787 643.841 88.7763 654.636 78.4261C665.43 68.0758 667.18 49.197 658.544 36.2591C626.277 -12.0864 562.731 -12.0864 530.463 36.2591C518.235 54.5803 492.788 54.5803 480.559 36.2591C448.292 -12.0864 384.746 -12.0864 352.478 36.2591C340.25 54.5803 314.803 54.5803 302.574 36.2591C293.939 23.3213 278.189 21.2236 267.394 31.5739C256.6 41.9242 254.85 60.803 263.486 73.7408C295.753 122.086 359.299 122.086 391.567 73.7408C403.795 55.4197 429.242 55.4197 441.471 73.7408C473.738 122.086 537.284 122.086 569.552 73.7408Z" fill="#00FFE0"/>
<path fill-rule="evenodd" clip-rule="evenodd" d="M563.038 67.4939C578.606 44.1687 610.403 44.1687 625.971 67.4939C631.728 76.1191 642.228 77.5176 649.424 70.6174C656.62 63.7172 657.787 51.1313 652.03 42.5061C623.102 -0.835367 565.906 -0.835367 536.978 42.5061C521.41 65.8313 489.613 65.8313 474.045 42.5061C445.117 -0.835367 387.921 -0.835367 358.993 42.5061C343.425 65.8313 311.628 65.8313 296.06 42.5061C290.303 33.8809 279.803 32.4824 272.607 39.3826C265.411 46.2828 264.244 58.8687 270.001 67.4939C298.929 110.835 356.125 110.835 385.053 67.4939C400.621 44.1687 432.418 44.1687 447.986 67.4939C476.914 110.835 534.11 110.835 563.038 67.4939Z" fill="#FF5F00"/>
<path fill-rule="evenodd" clip-rule="evenodd" d="M556.523 61.247C575.431 32.9177 613.578 32.9177 632.486 61.247C635.364 65.5596 640.614 66.2588 644.213 62.8087C647.811 59.3586 648.394 53.0657 645.515 48.7531C619.927 10.4156 569.081 10.4156 543.493 48.7531C524.585 77.0823 486.439 77.0823 467.531 48.7531C441.942 10.4156 391.096 10.4156 365.508 48.7531C346.6 77.0823 308.454 77.0823 289.546 48.7531C286.667 44.4404 281.417 43.7412 277.819 47.1913C274.221 50.6414 273.637 56.9343 276.516 61.247C302.104 99.5844 352.95 99.5844 378.538 61.247C397.446 32.9177 435.593 32.9177 454.501 61.247C480.089 99.5844 530.935 99.5844 556.523 61.247Z" fill="#FFF1E2"/>
</svg>
