<svg width="23" height="21" viewBox="0 0 23 21" fill="none" xmlns="http://www.w3.org/2000/svg">
<path d="M16.6702 10.3693C17.6696 9.26722 18.2833 7.81589 18.2833 6.22222C18.2833 2.79144 15.4633 0 11.9976 0C8.53177 0 5.71184 2.79144 5.71184 6.22222C5.71184 9.653 8.53177 12.4444 11.9976 12.4444C13.2193 12.4444 14.3571 12.0921 15.3235 11.4924C18.7413 12.7672 21.0946 15.8636 21.3939 19.4444H2.60199C2.80549 17.0341 3.94792 14.7863 5.80613 13.1826C6.13377 12.9002 6.16756 12.4094 5.88234 12.0851C5.59792 11.7616 5.10134 11.7273 4.7737 12.0097C2.37334 14.0801 0.997559 17.073 0.997559 20.2222C0.997559 20.6523 1.34956 21 1.78327 21H22.2118C22.6463 21 22.9976 20.6523 22.9976 20.2222C22.9976 15.9553 20.499 12.145 16.6702 10.3693ZM7.28327 6.22222C7.28327 3.64856 9.39763 1.55556 11.9976 1.55556C14.5975 1.55556 16.7118 3.64856 16.7118 6.22222C16.7118 8.79589 14.5975 10.8889 11.9976 10.8889C9.39763 10.8889 7.28327 8.79589 7.28327 6.22222Z" fill="#333333"/>
</svg>
