<svg width="25" height="21" viewBox="0 0 25 21" fill="none" xmlns="http://www.w3.org/2000/svg">
<path d="M24.3797 5.56969C24.3034 5.47924 24.2082 5.40656 24.1008 5.35674C23.9934 5.30692 23.8765 5.28115 23.7581 5.28125H19.6347C19.4381 3.82011 18.7185 2.47979 17.6092 1.50869C16.4999 0.537592 15.0762 0.00157946 13.6019 0H11.9769C10.5026 0.00157946 9.07885 0.537592 7.96956 1.50869C6.86027 2.47979 6.14064 3.82011 5.94407 5.28125H1.82063C1.70227 5.28115 1.58532 5.30692 1.47796 5.35674C1.3706 5.40656 1.27541 5.47924 1.19907 5.56969C1.12009 5.65979 1.06201 5.76625 1.029 5.88143C0.99599 5.99662 0.988865 6.11768 1.00813 6.23594L3.17345 18.5453C3.28428 19.1574 3.60734 19.7109 4.08584 20.1084C4.56433 20.5059 5.16764 20.722 5.7897 20.7188H19.7891C20.4096 20.719 21.0105 20.501 21.4865 20.1029C21.9626 19.7048 22.2835 19.152 22.3931 18.5413L24.5706 6.23594C24.5899 6.11768 24.5828 5.99662 24.5498 5.88143C24.5168 5.76625 24.4587 5.65979 24.3797 5.56969ZM11.9769 1.625H13.6019C14.6457 1.62563 15.6563 1.99161 16.4584 2.65946C17.2606 3.3273 17.8037 4.25487 17.9934 5.28125H7.58532C7.7751 4.25487 8.31817 3.3273 9.12033 2.65946C9.92248 1.99161 10.9331 1.62563 11.9769 1.625ZM20.7966 18.2569C20.7529 18.4921 20.6282 18.7046 20.4442 18.8575C20.2601 19.0104 20.0283 19.094 19.7891 19.0938H5.7897C5.55417 19.0957 5.3253 19.0157 5.14225 18.8675C4.9592 18.7193 4.83336 18.512 4.78626 18.2813L2.78751 6.90625H22.7913L20.7966 18.2569Z" fill="#333333"/>
</svg>
