<svg width="24" height="24" viewBox="0 0 24 24" fill="none" xmlns="http://www.w3.org/2000/svg">
<path d="M21.6896 20.1993C21.8883 20.3964 22 20.6646 22 20.9444C22 21.2243 21.8883 21.4925 21.6896 21.6896C21.4925 21.8882 21.2243 22 20.9445 22C20.6647 22 20.3965 21.8882 20.1995 21.6896L11.5 12.9789L2.80054 21.6896C2.6035 21.8882 2.33528 22 2.05548 22C1.77567 22 1.50745 21.8882 1.31041 21.6896C1.11175 21.4925 1 21.2243 1 20.9444C1 20.6646 1.11175 20.3964 1.31041 20.1993L10.0204 11.4991L1.31041 2.79893C1.04422 2.53272 0.940263 2.14471 1.03769 1.78106C1.13513 1.41741 1.41914 1.13337 1.78276 1.03593C2.14638 0.938491 2.53436 1.04246 2.80054 1.30867L11.5 10.0194L20.1995 1.30867C20.6109 0.897143 21.2781 0.897143 21.6896 1.30867C22.1011 1.72019 22.1011 2.3874 21.6896 2.79893L12.9796 11.4991L21.6896 20.1993Z" fill="#333333"/>
</svg>
