<svg width="23" height="22" viewBox="0 0 23 22" fill="none" xmlns="http://www.w3.org/2000/svg">
<path d="M4.53089 14.1333C2.55223 14.1333 0.997559 12.5787 0.997559 10.6C0.997559 8.62132 2.55223 7.06665 4.53089 7.06665C6.50956 7.06665 8.06423 8.62132 8.06423 10.6C8.06423 12.5787 6.50956 14.1333 4.53089 14.1333ZM4.53089 8.47998C3.32956 8.47998 2.41089 9.39865 2.41089 10.6C2.41089 11.8013 3.32956 12.72 4.53089 12.72C5.73223 12.72 6.65089 11.8013 6.65089 10.6C6.65089 9.39865 5.73223 8.47998 4.53089 8.47998Z" fill="#333333"/>
<path d="M18.6641 7.06667C16.6854 7.06667 15.1307 5.512 15.1307 3.53333C15.1307 1.55467 16.6854 0 18.6641 0C20.6427 0 22.1974 1.55467 22.1974 3.53333C22.1974 5.512 20.6427 7.06667 18.6641 7.06667ZM18.6641 1.41333C17.4627 1.41333 16.5441 2.332 16.5441 3.53333C16.5441 4.73467 17.4627 5.65334 18.6641 5.65334C19.8654 5.65334 20.7841 4.73467 20.7841 3.53333C20.7841 2.332 19.8654 1.41333 18.6641 1.41333Z" fill="#333333"/>
<path d="M18.6641 21.2C16.6854 21.2 15.1307 19.6453 15.1307 17.6666C15.1307 15.688 16.6854 14.1333 18.6641 14.1333C20.6427 14.1333 22.1974 15.688 22.1974 17.6666C22.1974 19.6453 20.6427 21.2 18.6641 21.2ZM18.6641 15.5466C17.4627 15.5466 16.5441 16.4653 16.5441 17.6666C16.5441 18.868 17.4627 19.7866 18.6641 19.7866C19.8654 19.7866 20.7841 18.868 20.7841 17.6666C20.7841 16.4653 19.8654 15.5466 18.6641 15.5466Z" fill="#333333"/>
<path d="M7.36245 11.2253L16.4643 15.7763L15.8319 17.0398L6.72998 12.4889L7.36245 11.2253Z" fill="#333333"/>
<path d="M15.8326 4.15869L16.4643 5.42362L7.36247 9.97315L6.73071 8.70821L15.8326 4.15869Z" fill="#333333"/>
</svg>
