<svg width="25" height="23" viewBox="0 0 25 23" fill="none" xmlns="http://www.w3.org/2000/svg">
<path d="M16.956 0.884917C16.0299 0.894443 15.0801 1.07528 14.1508 1.44621L14.1086 1.46411L14.0664 1.48585C13.4773 1.78585 12.9404 2.16113 12.4631 2.60587C9.89434 0.38413 5.80473 0.222881 3.00686 2.74523L2.97872 2.7708L2.95315 2.79765C0.498746 5.36131 0.556227 9.30947 2.02746 12.4291L2.04024 12.4534L2.05303 12.4789C3.78577 15.6876 7.02134 18.4139 9.9699 20.6554L9.97756 20.6618L9.98395 20.6669C10.1736 20.806 10.4998 21.0935 10.8764 21.3765C11.2529 21.6595 11.6783 21.9697 12.3007 22.0886L12.4401 22.1155L12.5807 22.104C13.2339 22.0476 13.4902 21.8064 13.9194 21.5363C14.3485 21.2661 14.8236 20.9232 15.3117 20.548C16.2739 19.8082 17.2695 18.9556 17.9251 18.3476C17.9336 18.3397 17.9475 18.3284 17.9558 18.3207C17.9572 18.3195 17.9583 18.318 17.9596 18.3169C19.3406 17.1385 20.7086 15.7799 21.8682 14.182C21.8686 14.1815 21.8691 14.1812 21.8695 14.1807C21.8717 14.1778 21.8737 14.1747 21.8759 14.1718C23.715 11.6956 24.6072 8.35863 23.5431 5.07097L23.5239 5.01215L23.4984 4.95716C22.3037 2.37438 19.7342 0.856378 16.956 0.884917ZM16.9892 2.90761C18.9909 2.86158 20.7454 3.93338 21.6164 5.76648C22.4212 8.33283 21.7255 10.9476 20.2265 12.961L20.2227 12.9661L20.2189 12.9712C19.1747 14.4122 17.9101 15.6735 16.5993 16.789L16.5826 16.8043L16.566 16.8197C15.9758 17.3691 14.9766 18.225 14.0639 18.9268C13.6075 19.2776 13.1699 19.5912 12.8301 19.8051C12.7023 19.8856 12.5807 19.9404 12.481 19.9829C12.3762 19.9256 12.2431 19.8449 12.1051 19.7412C11.8272 19.5324 11.5313 19.2657 11.2088 19.0278C11.2038 19.0239 11.1985 19.0201 11.1935 19.0162C8.33203 16.8398 5.31796 14.1971 3.86859 11.5328C2.69193 9.01904 2.74328 6.01028 4.40558 4.24242C6.66583 2.23276 10.0238 2.66966 11.6985 4.73211L12.5142 5.73579L13.3031 4.71166C13.757 4.1228 14.2987 3.67263 14.9563 3.33081C15.6456 3.06154 16.3304 2.92276 16.9892 2.90761Z" fill="#333333"/>
</svg>
