<svg width="23" height="22" viewBox="0 0 23 22" fill="none" xmlns="http://www.w3.org/2000/svg">
<path d="M5.79641 0C5.3548 0 4.91909 0.158922 4.556 0.448869L4.50365 0.475075L4.47747 0.502125L1.83874 3.22324L1.86492 3.2486C1.47774 3.60055 1.20341 4.05947 1.07657 4.56739C0.949731 5.07531 0.976065 5.60947 1.15225 6.10243C1.15563 6.10919 1.14887 6.12187 1.15225 6.12863C1.86829 8.1794 3.69894 12.1389 7.2741 15.718C10.8628 19.3107 14.8703 21.0707 16.8529 21.8467H16.8791C17.3759 22.0111 17.9069 22.0439 18.4202 21.942C18.9335 21.8401 19.4117 21.6069 19.8083 21.2651L22.4732 18.5972C23.1723 17.8973 23.1723 16.6817 22.4732 15.9818L19.0433 12.5481L19.0162 12.4948C18.3171 11.7949 17.0775 11.7949 16.3775 12.4948L14.6887 14.1855C13.4213 13.5759 12.2556 12.7741 11.2326 11.8084C9.85035 10.4871 9.14443 8.96809 8.88436 8.37382L10.5731 6.68317C11.2824 5.97309 11.2951 4.79132 10.5461 4.09477L10.5723 4.06772L10.4938 3.9891L7.1162 0.502125L7.09002 0.47592L7.03683 0.448869C6.68637 0.16239 6.24884 0.0040603 5.79641 0ZM5.79641 1.69066C5.86544 1.69467 5.93088 1.72279 5.98134 1.77012L9.35891 5.23005L9.43828 5.30951C9.43153 5.30275 9.48726 5.39235 9.38509 5.49464L7.2741 7.60796L6.87808 7.97821L7.06385 8.5057C7.06385 8.5057 8.03321 11.1051 10.0716 13.0502L10.2565 13.2083C12.218 15.0012 14.5308 15.9818 14.5308 15.9818L15.0586 16.2202L17.5656 13.7095C17.7108 13.565 17.6838 13.565 17.829 13.7095L21.286 17.172C21.4312 17.3166 21.4312 17.2641 21.286 17.4087L18.6996 19.9979C18.3112 20.3318 17.8983 20.4012 17.4077 20.2363C15.4943 19.4831 11.7764 17.8483 8.46132 14.5303C5.12005 11.1845 3.37554 7.39071 2.73633 5.54874C2.60714 5.20469 2.69918 4.69665 2.99978 4.43882L3.05213 4.38556L5.61234 1.77096C5.66223 1.72369 5.72702 1.69529 5.79557 1.69066H5.79641Z" fill="#333333"/>
</svg>
