<svg width="24" height="21" viewBox="0 0 24 21" fill="none" xmlns="http://www.w3.org/2000/svg">
<path d="M23.2802 2.96345C22.317 0.96274 19.5422 -0.674204 16.3145 0.278861C14.7722 0.72974 13.4265 1.69666 12.4974 3.02165C11.5683 1.69666 10.2226 0.72974 8.68027 0.278861C5.44542 -0.659653 2.67783 0.96274 1.71456 2.96345C0.363115 5.76444 0.923823 8.91465 3.38231 12.3268C5.30884 14.9968 8.06206 17.7032 12.0589 20.8461C12.1852 20.9459 12.3408 21 12.501 21C12.6612 21 12.8168 20.9459 12.9431 20.8461C16.9327 17.7105 19.6931 15.0259 21.6197 12.3268C24.071 8.91465 24.6317 5.76444 23.2802 2.96345Z" fill="#FF007A"/>
</svg>
