<svg width="623" height="460" viewBox="0 0 623 460" fill="none" xmlns="http://www.w3.org/2000/svg">
<path fill-rule="evenodd" clip-rule="evenodd" d="M903.301 245.251C917.726 223.637 947.745 223.637 962.17 245.251C972.356 260.515 990.937 262.989 1003.67 250.779C1016.4 238.568 1018.47 216.296 1008.28 201.033C970.216 143.998 895.254 143.998 857.189 201.033C842.764 222.647 812.745 222.647 798.32 201.033C760.255 143.998 685.293 143.998 647.228 201.033C632.803 222.647 602.784 222.647 588.359 201.033C578.172 185.77 559.592 183.295 546.858 195.506C534.125 207.716 532.06 229.988 542.247 245.251C580.312 302.286 655.274 302.286 693.339 245.251C707.765 223.637 737.783 223.637 752.208 245.251C790.274 302.286 865.236 302.286 903.301 245.251Z" fill="#00FFE0"/>
<path fill-rule="evenodd" clip-rule="evenodd" d="M483.378 245.251C497.803 223.637 527.822 223.637 542.247 245.251C552.434 260.515 571.014 262.989 583.747 250.779C596.481 238.568 598.545 216.296 588.359 201.033C550.294 143.998 475.331 143.998 437.266 201.033C422.841 222.647 392.823 222.647 378.397 201.033C340.332 143.998 265.37 143.998 227.305 201.033C212.88 222.647 182.861 222.647 168.436 201.033C158.249 185.77 139.669 183.295 126.936 195.506C114.202 207.716 112.138 229.988 122.324 245.251C160.389 302.286 235.352 302.286 273.417 245.251C287.842 223.637 317.86 223.637 332.286 245.251C370.351 302.286 445.313 302.286 483.378 245.251Z" fill="#00FFE0"/>
<path fill-rule="evenodd" clip-rule="evenodd" d="M895.616 237.882C913.981 210.364 951.49 210.364 969.855 237.882C976.646 248.057 989.033 249.707 997.522 241.567C1006.01 233.426 1007.39 218.578 1000.6 208.403C966.471 157.271 899 157.271 864.875 208.403C846.509 235.92 809 235.92 790.635 208.403C756.51 157.271 689.038 157.271 654.913 208.403C636.548 235.92 599.039 235.92 580.674 208.403C573.883 198.227 561.496 196.577 553.007 204.718C544.518 212.858 543.142 227.706 549.933 237.882C584.058 289.013 651.529 289.013 685.654 237.882C704.02 210.364 741.529 210.364 759.894 237.882C794.019 289.013 861.491 289.013 895.616 237.882Z" fill="#FF5F00"/>
<path fill-rule="evenodd" clip-rule="evenodd" d="M475.693 237.882C494.059 210.364 531.568 210.364 549.933 237.882C556.724 248.057 569.111 249.707 577.6 241.567C586.089 233.426 587.465 218.578 580.674 208.403C546.549 157.271 479.077 157.271 444.952 208.403C426.587 235.92 389.078 235.92 370.713 208.403C336.588 157.271 269.116 157.271 234.991 208.403C216.626 235.92 179.117 235.92 160.751 208.403C153.96 198.227 141.573 196.577 133.084 204.718C124.596 212.858 123.219 227.706 130.01 237.882C164.135 289.013 231.607 289.013 265.732 237.882C284.097 210.364 321.606 210.364 339.972 237.882C374.097 289.013 441.568 289.013 475.693 237.882Z" fill="#FF5F00"/>
<path fill-rule="evenodd" clip-rule="evenodd" d="M887.931 230.512C910.236 197.091 955.236 197.091 977.541 230.512C980.937 235.6 987.13 236.425 991.375 232.354C995.619 228.284 996.307 220.86 992.912 215.772C962.727 170.545 902.746 170.545 872.561 215.772C850.255 249.193 805.256 249.193 782.95 215.772C752.765 170.545 692.784 170.545 662.599 215.772C640.294 249.193 595.294 249.193 572.989 215.772C569.594 210.685 563.4 209.86 559.156 213.93C554.911 218 554.223 225.424 557.619 230.512C587.804 275.74 647.785 275.74 677.97 230.512C700.275 197.091 745.275 197.091 767.58 230.512C797.765 275.74 857.746 275.74 887.931 230.512Z" fill="#FFF1E2"/>
<path fill-rule="evenodd" clip-rule="evenodd" d="M468.008 230.512C490.313 197.091 535.313 197.091 557.618 230.512C561.014 235.6 567.207 236.425 571.452 232.354C575.696 228.284 576.385 220.86 572.989 215.772C542.804 170.545 482.823 170.545 452.638 215.772C430.333 249.193 385.333 249.193 363.028 215.772C332.843 170.545 272.862 170.545 242.676 215.772C220.371 249.193 175.372 249.193 153.066 215.772C149.671 210.685 143.477 209.86 139.233 213.93C134.988 218 134.3 225.424 137.696 230.512C167.881 275.74 227.862 275.74 258.047 230.512C280.352 197.091 325.352 197.091 347.657 230.512C377.842 275.74 437.823 275.74 468.008 230.512Z" fill="#FFF1E2"/>
<path fill-rule="evenodd" clip-rule="evenodd" d="M788.301 417.224C802.726 395.61 832.745 395.61 847.17 417.224C857.356 432.487 875.937 434.962 888.67 422.751C901.404 410.541 903.468 388.269 893.281 373.005C855.216 315.971 780.254 315.971 742.189 373.005C727.764 394.62 697.745 394.62 683.32 373.005C645.255 315.971 570.293 315.971 532.228 373.005C517.803 394.62 487.784 394.62 473.359 373.005C463.172 357.742 444.592 355.268 431.858 367.478C419.125 379.689 417.06 401.961 427.247 417.224C465.312 474.259 540.274 474.259 578.339 417.224C592.765 395.61 622.783 395.61 637.208 417.224C675.274 474.259 750.236 474.259 788.301 417.224Z" fill="#00FFE0"/>
<path fill-rule="evenodd" clip-rule="evenodd" d="M368.378 417.224C382.803 395.61 412.822 395.61 427.247 417.224C437.434 432.487 456.014 434.962 468.747 422.751C481.481 410.541 483.545 388.269 473.359 373.005C435.294 315.971 360.331 315.971 322.266 373.005C307.841 394.62 277.823 394.62 263.397 373.005C225.332 315.971 150.37 315.971 112.305 373.005C97.8798 394.62 67.8612 394.62 53.4359 373.005C43.2493 357.742 24.6689 355.268 11.9355 367.478C-0.797835 379.689 -2.8623 401.961 7.32439 417.224C45.3895 474.259 120.352 474.259 158.417 417.224C172.842 395.61 202.86 395.61 217.286 417.224C255.351 474.259 330.313 474.259 368.378 417.224Z" fill="#00FFE0"/>
<path fill-rule="evenodd" clip-rule="evenodd" d="M780.616 409.854C798.981 382.337 836.49 382.337 854.855 409.854C861.646 420.03 874.033 421.679 882.522 413.539C891.011 405.399 892.387 390.551 885.596 380.375C851.471 329.244 784 329.244 749.875 380.375C731.509 407.893 694 407.893 675.635 380.375C641.51 329.244 574.038 329.244 539.913 380.375C521.548 407.893 484.039 407.893 465.674 380.375C458.883 370.2 446.496 368.55 438.007 376.69C429.518 384.831 428.142 399.679 434.933 409.854C469.058 460.986 536.529 460.986 570.654 409.854C589.02 382.337 626.529 382.337 644.894 409.854C679.019 460.986 746.491 460.986 780.616 409.854Z" fill="#FF5F00"/>
<path fill-rule="evenodd" clip-rule="evenodd" d="M360.693 409.854C379.059 382.337 416.568 382.337 434.933 409.854C441.724 420.03 454.111 421.679 462.6 413.539C471.089 405.399 472.465 390.551 465.674 380.375C431.549 329.244 364.077 329.244 329.952 380.375C311.587 407.893 274.078 407.893 255.713 380.375C221.588 329.244 154.116 329.244 119.991 380.375C101.626 407.893 64.1166 407.893 45.7513 380.375C38.9602 370.2 26.5733 368.55 18.0844 376.69C9.59551 384.831 8.2192 399.679 15.0103 409.854C49.1354 460.986 116.607 460.986 150.732 409.854C169.097 382.337 206.606 382.337 224.972 409.854C259.097 460.986 326.568 460.986 360.693 409.854Z" fill="#FF5F00"/>
<path fill-rule="evenodd" clip-rule="evenodd" d="M772.931 402.484C795.236 369.064 840.236 369.064 862.541 402.484C865.937 407.572 872.13 408.397 876.375 404.327C880.619 400.257 881.307 392.833 877.912 387.745C847.727 342.517 787.746 342.517 757.561 387.745C735.255 421.166 690.256 421.166 667.95 387.745C637.765 342.517 577.784 342.517 547.599 387.745C525.294 421.166 480.294 421.166 457.989 387.745C454.594 382.657 448.4 381.832 444.156 385.903C439.911 389.973 439.223 397.397 442.619 402.484C472.804 447.712 532.785 447.712 562.97 402.484C585.275 369.064 630.275 369.064 652.58 402.484C682.765 447.712 742.746 447.712 772.931 402.484Z" fill="#FFF1E2"/>
<path fill-rule="evenodd" clip-rule="evenodd" d="M353.008 402.484C375.313 369.064 420.313 369.064 442.618 402.484C446.014 407.572 452.207 408.397 456.452 404.327C460.696 400.257 461.385 392.833 457.989 387.745C427.804 342.517 367.823 342.517 337.638 387.745C315.333 421.166 270.333 421.166 248.028 387.745C217.843 342.517 157.862 342.517 127.676 387.745C105.371 421.166 60.3716 421.166 38.0664 387.745C34.6708 382.657 28.4774 381.832 24.2329 385.903C19.9884 389.973 19.3003 397.397 22.6958 402.484C52.881 447.712 112.862 447.712 143.047 402.484C165.352 369.064 210.352 369.064 232.657 402.484C262.842 447.712 322.823 447.712 353.008 402.484Z" fill="#FFF1E2"/>
<path fill-rule="evenodd" clip-rule="evenodd" d="M601.757 77.8C614.658 58.4703 641.506 58.4703 654.407 77.8C663.518 91.45 680.135 93.6631 691.524 82.7431C702.912 71.8231 704.758 51.9051 695.648 38.2551C661.604 -12.7517 594.56 -12.7517 560.516 38.2551C547.615 57.5847 520.767 57.5847 507.865 38.2551C473.821 -12.7517 406.778 -12.7517 372.734 38.2551C359.832 57.5847 332.985 57.5847 320.083 38.2551C310.973 24.605 294.355 22.3919 282.967 33.3119C271.578 44.232 269.732 64.1499 278.843 77.8C312.887 128.807 379.93 128.807 413.974 77.8C426.876 58.4703 453.723 58.4703 466.625 77.8C500.669 128.807 567.712 128.807 601.757 77.8Z" fill="#00FFE0"/>
<path fill-rule="evenodd" clip-rule="evenodd" d="M594.884 71.2091C611.309 46.6 644.856 46.6 661.281 71.2091C667.355 80.3091 678.433 81.7845 686.026 74.5045C693.618 67.2245 694.849 53.9459 688.775 44.8458C658.255 -0.881396 597.91 -0.881396 567.39 44.8458C550.965 69.455 517.418 69.455 500.993 44.8458C470.472 -0.881396 410.128 -0.881396 379.608 44.8458C363.182 69.455 329.636 69.455 313.21 44.8458C307.137 35.7458 296.058 34.2704 288.466 41.5504C280.874 48.8304 279.643 62.1091 285.717 71.2091C316.237 116.936 376.581 116.936 407.101 71.2091C423.527 46.6 457.074 46.6 473.499 71.2091C504.019 116.936 564.363 116.936 594.884 71.2091Z" fill="#FF5F00"/>
<path fill-rule="evenodd" clip-rule="evenodd" d="M588.01 64.6184C607.959 34.7297 648.206 34.7297 668.155 64.6184C671.192 69.1684 676.731 69.9061 680.527 66.2661C684.323 62.6261 684.939 55.9868 681.902 51.4367C654.905 10.989 601.26 10.989 574.264 51.4367C554.315 81.3254 514.068 81.3254 494.119 51.4367C467.123 10.989 413.478 10.989 386.481 51.4367C366.532 81.3254 326.286 81.3254 306.337 51.4367C303.3 46.8867 297.761 46.149 293.965 49.789C290.169 53.429 289.553 60.0684 292.59 64.6184C319.587 105.066 373.232 105.066 400.228 64.6184C420.177 34.7297 460.423 34.7297 480.372 64.6184C507.369 105.066 561.014 105.066 588.01 64.6184Z" fill="#FFF1E2"/>
</svg>
