<svg width="151" height="91" viewBox="0 0 151 91" fill="none" xmlns="http://www.w3.org/2000/svg">
<path fill-rule="evenodd" clip-rule="evenodd" d="M-82.911 25.8093C-87.1937 19.3969 -96.106 19.3969 -100.389 25.8093C-103.413 30.3375 -108.929 31.0717 -112.71 27.4491C-116.49 23.8265 -117.103 17.219 -114.079 12.6907C-102.778 -4.23023 -80.5221 -4.23023 -69.2209 12.6907C-64.9382 19.1031 -56.0259 19.1031 -51.7432 12.6907C-40.442 -4.23023 -18.1865 -4.23023 -6.88527 12.6907C-2.60255 19.1031 6.30972 19.1031 10.5924 12.6907C13.6168 8.16245 19.1331 7.42828 22.9135 11.0509C26.694 14.6735 27.3069 21.281 24.2825 25.8093C12.9814 42.7302 -9.27419 42.7302 -20.5754 25.8093C-24.8581 19.3969 -33.7704 19.3969 -38.0531 25.8093C-49.3543 42.7302 -71.6098 42.7302 -82.911 25.8093Z" fill="#00FFE0"/>
<path fill-rule="evenodd" clip-rule="evenodd" d="M41.7604 25.8093C37.4777 19.3969 28.5654 19.3969 24.2827 25.8093C21.2584 30.3375 15.742 31.0717 11.9616 27.4491C8.18119 23.8265 7.56827 17.219 10.5926 12.6907C21.8938 -4.23023 44.1493 -4.23023 55.4505 12.6907C59.7333 19.1031 68.6455 19.1031 72.9282 12.6907C84.2294 -4.23023 106.485 -4.23023 117.786 12.6907C122.069 19.1031 130.981 19.1031 135.264 12.6907C138.288 8.16245 143.805 7.42828 147.585 11.0509C151.365 14.6735 151.978 21.281 148.954 25.8093C137.653 42.7302 115.397 42.7302 104.096 25.8093C99.8133 19.3969 90.9011 19.3969 86.6183 25.8093C75.3172 42.7302 53.0616 42.7302 41.7604 25.8093Z" fill="#00FFE0"/>
<path fill-rule="evenodd" clip-rule="evenodd" d="M-80.6295 23.6229C-86.082 15.459 -97.2181 15.459 -102.671 23.6229C-104.687 26.6417 -108.364 27.1311 -110.885 24.7161C-113.405 22.301 -113.814 17.896 -111.797 14.8771C-101.666 -0.292379 -81.6342 -0.292379 -71.5028 14.8771C-66.0503 23.041 -54.9142 23.041 -49.4617 14.8771C-39.3303 -0.292379 -19.2986 -0.292379 -9.16714 14.8771C-3.71468 23.041 7.42145 23.041 12.8739 14.8771C14.8901 11.8583 18.5677 11.3689 21.088 13.7839C23.6083 16.199 24.0169 20.604 22.0007 23.6229C11.8692 38.7924 -8.16245 38.7924 -18.2939 23.6229C-23.7464 15.459 -34.8825 15.459 -40.335 23.6229C-50.4664 38.7924 -70.4981 38.7924 -80.6295 23.6229Z" fill="#FF5F00"/>
<path fill-rule="evenodd" clip-rule="evenodd" d="M44.0419 23.6229C38.5894 15.459 27.4533 15.459 22.0008 23.6229C19.9846 26.6417 16.307 27.1311 13.7867 24.7161C11.2665 22.301 10.8578 17.896 12.8741 14.8771C23.0055 -0.292379 43.0372 -0.292379 53.1686 14.8771C58.6211 23.041 69.7572 23.041 75.2097 14.8771C85.3411 -0.292379 105.373 -0.292379 115.504 14.8771C120.957 23.041 132.093 23.041 137.545 14.8771C139.562 11.8583 143.239 11.3689 145.759 13.7839C148.28 16.199 148.688 20.604 146.672 23.6229C136.541 38.7924 116.509 38.7924 106.377 23.6229C100.925 15.459 89.7889 15.459 84.3364 23.6229C74.205 38.7924 54.1733 38.7924 44.0419 23.6229Z" fill="#FF5F00"/>
<path fill-rule="evenodd" clip-rule="evenodd" d="M-78.348 21.4364C-84.9702 11.5212 -98.3303 11.5212 -104.952 21.4364C-105.961 22.9459 -107.799 23.1906 -109.06 21.983C-110.32 20.7755 -110.524 18.573 -109.516 17.0636C-100.554 3.64548 -82.7464 3.64548 -73.7847 17.0636C-67.1625 26.9788 -53.8024 26.9788 -47.1802 17.0636C-38.2185 3.64548 -20.4107 3.64548 -11.4491 17.0636C-4.82684 26.9788 8.53318 26.9788 15.1554 17.0636C16.1635 15.5542 18.0023 15.3094 19.2624 16.517C20.5226 17.7245 20.7269 19.927 19.7188 21.4364C10.7571 34.8545 -7.05072 34.8545 -16.0124 21.4364C-22.6346 11.5212 -35.9946 11.5212 -42.6169 21.4364C-51.5786 34.8545 -69.3863 34.8545 -78.348 21.4364Z" fill="#FFF1E2"/>
<path fill-rule="evenodd" clip-rule="evenodd" d="M46.3233 21.4364C39.7011 11.5212 26.3411 11.5212 19.7189 21.4364C18.7108 22.9459 16.872 23.1906 15.6119 21.983C14.3517 20.7755 14.1474 18.573 15.1555 17.0636C24.1172 3.64548 41.925 3.64548 50.8867 17.0636C57.5089 26.9788 70.8689 26.9788 77.4912 17.0636C86.4528 3.64548 104.261 3.64548 113.222 17.0636C119.845 26.9788 133.205 26.9788 139.827 17.0636C140.835 15.5542 142.674 15.3094 143.934 16.517C145.194 17.7245 145.398 19.927 144.39 21.4364C135.428 34.8545 117.621 34.8545 108.659 21.4364C102.037 11.5212 88.6767 11.5212 82.0545 21.4364C73.0928 34.8545 55.285 34.8545 46.3233 21.4364Z" fill="#FFF1E2"/>
<path fill-rule="evenodd" clip-rule="evenodd" d="M-13.7224 78.3093C-18.0192 71.8969 -26.9606 71.8969 -31.2574 78.3093C-34.2917 82.8375 -39.8261 83.5717 -43.6189 79.9491C-47.4117 76.3265 -48.0267 69.719 -44.9924 65.1907C-33.6542 48.2698 -11.3256 48.2698 0.0125923 65.1907C4.30936 71.6031 13.2508 71.6031 17.5476 65.1907C28.8858 48.2698 51.2144 48.2698 62.5526 65.1907C66.8493 71.6031 75.7908 71.6031 80.0876 65.1907C83.1219 60.6625 88.6563 59.9283 92.4491 63.5509C96.2419 67.1735 96.8569 73.781 93.8226 78.3093C82.4844 95.2302 60.1558 95.2302 48.8176 78.3093C44.5208 71.8969 35.5794 71.8969 31.2826 78.3093C19.9444 95.2302 -2.38417 95.2302 -13.7224 78.3093Z" fill="#00FFE0"/>
<path fill-rule="evenodd" clip-rule="evenodd" d="M-11.4333 76.1229C-16.9036 67.959 -28.0763 67.959 -33.5466 76.1229C-35.5694 79.1417 -39.2591 79.6311 -41.7876 77.2161C-44.3161 74.801 -44.7261 70.396 -42.7033 67.3771C-32.5386 52.2076 -12.4413 52.2076 -2.2766 67.3771C3.19374 75.541 14.3664 75.541 19.8367 67.3771C30.0014 52.2076 50.0987 52.2076 60.2634 67.3771C65.7337 75.541 76.9064 75.541 82.3767 67.3771C84.3996 64.3583 88.0892 63.8689 90.6177 66.2839C93.1463 68.699 93.5562 73.104 91.5334 76.1229C81.3687 91.2924 61.2714 91.2924 51.1067 76.1229C45.6364 67.959 34.4637 67.959 28.9934 76.1229C18.8287 91.2924 -1.26861 91.2924 -11.4333 76.1229Z" fill="#FF5F00"/>
<path fill-rule="evenodd" clip-rule="evenodd" d="M-9.14463 73.9364C-15.7885 64.0212 -29.1924 64.0212 -35.8363 73.9364C-36.8477 75.4459 -38.6925 75.6906 -39.9568 74.483C-41.2211 73.2755 -41.426 71.073 -40.4146 69.5636C-31.4235 56.1455 -13.5574 56.1455 -4.5663 69.5636C2.07762 79.4788 15.4814 79.4788 22.1254 69.5636C31.1164 56.1455 48.9826 56.1455 57.9737 69.5636C64.6176 79.4788 78.0214 79.4788 84.6654 69.5636C85.6768 68.0542 87.5216 67.8094 88.7858 69.017C90.0501 70.2245 90.2551 72.427 89.2437 73.9364C80.2526 87.3545 62.3864 87.3545 53.3954 73.9364C46.7514 64.0212 33.3476 64.0212 26.7037 73.9364C17.7126 87.3545 -0.153553 87.3545 -9.14463 73.9364Z" fill="#FFF1E2"/>
</svg>
