<svg xmlns="http://www.w3.org/2000/svg" viewBox="0 0 391.3 81.68"><defs><style>.cls-1{fill:#eb621d;}.cls-2{fill:#fff;}</style></defs><g id="Calque_2" data-name="Calque 2"><g id="Calque_1-2" data-name="Calque 1"><g id="fond_clair" data-name="fond clair"><path class="cls-1" d="M266.08,17h-29.5s4.07,3.32,4.37,3.72c6.71,8-3.58,47.77-3.58,47.77-.88-1.57-17.13-37-7.24-47.82.06-.07.09-.14.14-.21l0,0L233.13,17H186l2.57,3.3c3.38,3.8,10.61,10.14,17.14,31.08L213,74.8c1.42,4.71,3.54,6.81,9,6.81h15.94L239.56,77c.24-.58.45-1.19.64-1.82l12.36-39.62c1.79-6,3.94-10.18,8.43-14.17Z"/><path class="cls-1" d="M80,17H50.54s4.07,3.32,4.37,3.72c6.71,8-3.58,47.77-3.58,47.77-.88-1.57-17.13-37-7.24-47.82.06-.07.09-.14.14-.21l0,0L47.1,17H0l2.57,3.3C6,24.13,13.18,30.47,19.71,51.41L27,74.8c1.41,4.71,3.53,6.81,9,6.81H51.9L53.52,77c.24-.58.45-1.19.64-1.82L66.52,35.53c1.79-6,3.94-10.18,8.44-14.17Z"/><path class="cls-1" d="M284.61,24.65c6.44,0,12.71-5.18,14.13-11.46,1.41-6.43-2.67-11.45-8.95-11.45a15,15,0,0,0-14.12,11.45C274.25,19.47,278.34,24.65,284.61,24.65Z"/><path class="cls-1" d="M310.29,81.55l-4.07-4.15c-4.35-5.53-7.07-22.53-3.24-48.7l1.13-5.89-1.81.7a5.8,5.8,0,0,0-.58.2l-2.34.93h0C294,26.82,287,29.87,274.41,35.16l-.06,0-3.15,1.2,3.59,2.72c4.6,3.88,5.43,7.25,5.43,12.69V65c0,5.18-1.3,8-4.8,12l-4.31,4.69,5.87-.06h28l.32,0Z"/><path class="cls-1" d="M381,77.38c-4.34-3.69-5.28-7-5.28-12.4V32.81c0-10.36.78-15.54,3-27.15.07-.44.18-.93.28-1.43h0v0c0-.09,0-.17.05-.25l.62-3.15-2.53,1C366.65,6.18,364,7.23,349.42,13.12h0l-3.08,1.21,2.42,2c2.19,1.73,3.76,4.71,4.7,8.63a31.11,31.11,0,0,0-9.41-1.41c-17.42,0-31.39,13-31.39,29s14,29,31.39,29h42.59Zm-37-.16c-5,0-9.1-11.14-9.1-24.64s4.08-24.64,9.1-24.64c4.86,0,8.94,11,8.94,24.64S348.91,77.22,344.05,77.22Z"/><path class="cls-2" d="M270.74,16.25H241.23s4.08,3.32,4.38,3.72c6.71,8-3.58,47.76-3.58,47.76-.88-1.57-17.13-37-7.24-47.82a1.37,1.37,0,0,0,.13-.2l0,0,2.84-3.48H190.7l2.57,3.3c3.38,3.79,10.61,10.14,17.14,31.08L217.65,74c1.42,4.71,3.54,6.8,9,6.8H242.6l1.62-4.64c.24-.58.45-1.19.64-1.81l12.36-39.62c1.79-5.95,3.94-10.18,8.43-14.17Z"/><path class="cls-2" d="M84.7,16.25H55.2s4.07,3.32,4.37,3.72C66.28,28,56,67.73,56,67.73c-.88-1.57-17.13-37-7.24-47.82a1.43,1.43,0,0,0,.14-.2l0,0,2.84-3.48H4.66l2.57,3.3c3.38,3.79,10.61,10.14,17.14,31.08L31.61,74c1.42,4.71,3.54,6.8,9,6.8H56.56l1.62-4.64c.24-.58.45-1.19.64-1.81L71.18,34.75C73,28.8,75.12,24.57,79.61,20.58Z"/><path class="cls-2" d="M289.27,23.86c6.44,0,12.71-5.18,14.12-11.46C304.81,6,300.73.94,294.45.94A15,15,0,0,0,280.33,12.4C278.91,18.68,283,23.86,289.27,23.86Z"/><path class="cls-2" d="M315,80.76l-4.07-4.15c-4.35-5.53-7.07-22.53-3.25-48.7L308.77,22l-1.81.7c-.17.05-.37.11-.58.19l-2.34.94h0c-5.33,2.17-12.33,5.21-24.95,10.51l-.06,0-3.15,1.19,3.58,2.73c4.61,3.88,5.44,7.25,5.44,12.69V64.19c0,5.18-1.31,8-4.8,12l-4.31,4.7,5.87-.07H310Z"/><path class="cls-2" d="M385.69,76.59c-4.34-3.69-5.28-7-5.28-12.4V32c0-10.36.78-15.54,3-27.15.07-.44.18-.94.28-1.43h0v0a2,2,0,0,1,.05-.24L384.35,0l-2.53.94c-10.51,4.45-13.16,5.5-27.75,11.38h0L351,13.54l2.42,2c2.19,1.73,3.76,4.71,4.7,8.63a31.11,31.11,0,0,0-9.41-1.41c-17.42,0-31.39,13-31.39,29s14,29,31.39,29H391.3Zm-37-.16c-5,0-9.1-11.14-9.1-24.64s4.08-24.64,9.1-24.64c4.86,0,8.94,11,8.94,24.64S353.57,76.43,348.71,76.43Z"/><path class="cls-1" d="M113,50.36c2.82,0,4.81-4.3,4.81-9.43s-2-9.53-4.81-9.53c-1.68,0-5.14,3.25-5.14,10C107.9,46.9,110.52,50.36,113,50.36Zm-3.83-9.48a3.54,3.54,0,1,1,3.54,3.53A3.55,3.55,0,0,1,109.21,40.88Z"/><path class="cls-1" d="M112.52,15.25a32.62,32.62,0,1,0,32.62,32.62A32.62,32.62,0,0,0,112.52,15.25Zm18.74,41.5a21.17,21.17,0,0,1-18.54,10.47c-11.62,0-20.94-8.69-20.94-19.38S101,28.47,113.56,28.47c8.17,0,17,5.55,17,12.46s-6.71,12.36-14.88,12.36a18.4,18.4,0,0,1-7.33-1.57,10.83,10.83,0,0,0,7.54,7.64c3.88,1,10.27-.31,13.2-4.18l1-1.4,2,1.36Z"/><path class="cls-1" d="M163.42,30.78c-2.83,0-4.82,4.3-4.82,9.53s2,9.43,4.82,9.43c2.51,0,5.13-3.46,5.13-9C168.55,34,165.09,30.78,163.42,30.78Zm3.69,9.43a3.54,3.54,0,1,1-3.54-3.53A3.54,3.54,0,0,1,167.11,40.21Z"/><path class="cls-1" d="M164,14.7a32.62,32.62,0,1,0,32.62,32.62A32.63,32.63,0,0,0,164,14.7Zm-.29,51.9a21.2,21.2,0,0,1-18.41-10.26h0l-.09-.17,0,0v0l-.69-1.22,2.08-1.48.77,1.1,0,.05c2.93,3.87,9.32,5.23,13.2,4.19a10.86,10.86,0,0,0,7.54-7.65,18.4,18.4,0,0,1-7.33,1.57c-8.17,0-14.87-5.55-14.87-12.36s8.79-12.46,17-12.46c12.57,0,21.79,8.69,21.79,19.38S175.36,66.6,163.73,66.6Z"/></g></g></g></svg>