<svg xmlns="http://www.w3.org/2000/svg" viewBox="0 0 391.3 81.94"><defs><style>.cls-1{fill:#d8d8d8;}.cls-2{fill:#fff;}</style></defs><g id="Calque_2" data-name="Calque 2"><g id="Calque_1-2" data-name="Calque 1"><g id="monochrome"><path class="cls-1" d="M266.08,17h-29.5s4.07,3.32,4.37,3.72c6.71,8-3.58,47.77-3.58,47.77-.88-1.57-17.13-37-7.24-47.82.06-.07.09-.14.14-.21l0,0L233.13,17H186l2.57,3.3c3.38,3.8,10.61,10.14,17.14,31.08L213,74.8c1.42,4.71,3.54,6.81,9,6.81h15.94L239.56,77c.24-.58.45-1.19.64-1.82l12.36-39.62c1.79-6,3.94-10.18,8.43-14.17Z"/><path class="cls-1" d="M80,17H50.54s4.07,3.32,4.37,3.72c6.71,8-3.58,47.77-3.58,47.77-.88-1.57-17.13-37-7.24-47.82.06-.07.09-.14.14-.21l0,0L47.1,17H0l2.57,3.3C6,24.13,13.18,30.47,19.71,51.41L27,74.8c1.41,4.71,3.53,6.81,9,6.81H51.9L53.52,77c.24-.58.45-1.19.64-1.82L66.52,35.53c1.79-6,3.94-10.18,8.44-14.17Z"/><path class="cls-1" d="M284.61,24.65c6.44,0,12.71-5.18,14.13-11.46,1.41-6.43-2.67-11.45-8.95-11.45a15,15,0,0,0-14.12,11.45C274.25,19.47,278.34,24.65,284.61,24.65Z"/><path class="cls-1" d="M310.29,81.55l-4.07-4.15c-4.35-5.53-7.07-22.53-3.24-48.7l1.13-5.89-1.81.7a5.8,5.8,0,0,0-.58.2l-2.34.93h0C294,26.82,287,29.87,274.41,35.16l-.06,0-3.15,1.2,3.59,2.72c4.6,3.88,5.43,7.25,5.43,12.69V65c0,5.18-1.3,8-4.8,12l-4.31,4.69,5.87-.06h28l.32,0Z"/><path class="cls-1" d="M381,77.38c-4.34-3.69-5.28-7-5.28-12.4V32.81c0-10.36.78-15.54,3-27.15.07-.44.18-.93.28-1.43h0v0c0-.09,0-.17.05-.25l.62-3.15-2.53,1C366.65,6.18,364,7.23,349.42,13.12h0l-3.08,1.21,2.42,2c2.19,1.73,3.76,4.71,4.7,8.63a31.11,31.11,0,0,0-9.41-1.41c-17.42,0-31.39,13-31.39,29s14,29,31.39,29h42.59Zm-37-.16c-5,0-9.1-11.14-9.1-24.64s4.08-24.64,9.1-24.64c4.86,0,8.94,11,8.94,24.64S348.91,77.22,344.05,77.22Z"/><path class="cls-2" d="M270.74,16.25H241.23s4.08,3.32,4.38,3.72c6.71,8-3.58,47.76-3.58,47.76-.88-1.57-17.13-37-7.24-47.82a1.37,1.37,0,0,0,.13-.2l0,0,2.84-3.48H190.7l2.57,3.3c3.38,3.79,10.61,10.14,17.14,31.08L217.65,74c1.42,4.71,3.54,6.8,9,6.8H242.6l1.62-4.64c.24-.58.45-1.19.64-1.81l12.36-39.62c1.79-5.95,3.94-10.18,8.43-14.17Z"/><path class="cls-2" d="M84.7,16.25H55.2s4.07,3.32,4.37,3.72C66.28,28,56,67.73,56,67.73c-.88-1.57-17.13-37-7.24-47.82a1.43,1.43,0,0,0,.14-.2l0,0,2.84-3.48H4.66l2.57,3.3c3.38,3.79,10.61,10.14,17.14,31.08L31.61,74c1.42,4.71,3.54,6.8,9,6.8H56.56l1.62-4.64c.24-.58.45-1.19.64-1.81L71.18,34.75C73,28.8,75.12,24.57,79.61,20.58Z"/><path class="cls-2" d="M289.27,23.86c6.44,0,12.71-5.18,14.12-11.46C304.81,6,300.73.94,294.45.94A15,15,0,0,0,280.33,12.4C278.91,18.68,283,23.86,289.27,23.86Z"/><path class="cls-2" d="M315,80.76l-4.07-4.15c-4.35-5.53-7.07-22.53-3.25-48.7L308.77,22l-1.81.7c-.17.05-.37.11-.58.19l-2.34.94h0c-5.33,2.17-12.33,5.21-24.95,10.51l-.06,0-3.15,1.19,3.58,2.73c4.61,3.88,5.44,7.25,5.44,12.69V64.19c0,5.18-1.31,8-4.8,12l-4.31,4.7,5.87-.07H310Z"/><path class="cls-2" d="M385.69,76.59c-4.34-3.69-5.28-7-5.28-12.4V32c0-10.36.78-15.54,3-27.15.07-.44.18-.94.28-1.43h0v0a2,2,0,0,1,.05-.24L384.35,0l-2.53.94c-10.51,4.45-13.16,5.5-27.75,11.38h0L351,13.54l2.42,2c2.19,1.73,3.76,4.71,4.7,8.63a31.11,31.11,0,0,0-9.41-1.41c-17.42,0-31.39,13-31.39,29s14,29,31.39,29H391.3Zm-37-.16c-5,0-9.1-11.14-9.1-24.64s4.08-24.64,9.1-24.64c4.86,0,8.94,11,8.94,24.64S353.57,76.43,348.71,76.43Z"/><path class="cls-2" d="M111,51.81c2.83,0,4.82-4.3,4.82-9.43s-2-9.53-4.82-9.53c-1.67,0-5.13,3.25-5.13,9.95C105.86,48.35,108.48,51.81,111,51.81Zm-3.82-9.48a3.54,3.54,0,1,1,3.53,3.54A3.53,3.53,0,0,1,107.17,42.33Z"/><path class="cls-2" d="M110.48,16.7a32.62,32.62,0,1,0,32.61,32.62A32.62,32.62,0,0,0,110.48,16.7Zm18.73,41.5a21.16,21.16,0,0,1-18.53,10.47c-11.63,0-21-8.69-21-19.37S99,29.92,111.52,29.92c8.16,0,17,5.55,17,12.46s-6.7,12.36-14.87,12.36a18.4,18.4,0,0,1-7.33-1.57,10.86,10.86,0,0,0,7.54,7.65c3.87,1,10.26-.32,13.2-4.19l1-1.4,2,1.36Z"/><path class="cls-2" d="M160.91,32.76c-2.83,0-4.82,4.29-4.82,9.53s2,9.42,4.82,9.42c2.51,0,5.13-3.45,5.13-9C166,36,162.58,32.76,160.91,32.76Zm3.69,9.43a3.54,3.54,0,1,1-3.53-3.54A3.53,3.53,0,0,1,164.6,42.19Z"/><path class="cls-2" d="M161.52,16.68A32.62,32.62,0,1,0,194.13,49.3,32.61,32.61,0,0,0,161.52,16.68Zm-.3,51.9a21.19,21.19,0,0,1-18.41-10.27h0l-.1-.18a.05.05,0,0,1,0,0h0L142,56.87l2.08-1.49.76,1.1,0,.05c2.94,3.88,9.33,5.24,13.2,4.19a10.87,10.87,0,0,0,7.54-7.64,18.4,18.4,0,0,1-7.33,1.57c-8.17,0-14.87-5.55-14.87-12.36s8.8-12.46,17-12.46c12.56,0,21.78,8.69,21.78,19.37S172.85,68.58,161.22,68.58Z"/></g></g></g></svg>