<svg xmlns="http://www.w3.org/2000/svg" viewBox="0 0 188.8 105.97"><defs><style>.cls-1{fill:#fff;}</style></defs><g id="Calque_2" data-name="Calque 2"><g id="Calque_1-2" data-name="Calque 1"><path class="cls-1" d="M53.8,57.05c4.59,0,7.82-7,7.82-15.31,0-8.5-3.23-15.47-7.82-15.47-2.72,0-8.33,5.27-8.33,16.15C45.47,51.43,49.72,57.05,53.8,57.05ZM47.59,41.66a5.74,5.74,0,1,1,5.74,5.74A5.74,5.74,0,0,1,47.59,41.66Z"/><path class="cls-1" d="M53,0a53,53,0,1,0,53,53A53,53,0,0,0,53,0ZM83.39,67.42c-5.61,10-17,17-30.1,17-18.88,0-34-14.12-34-31.47s15-31.46,35.37-31.46c13.27,0,27.55,9,27.55,20.24,0,11-10.88,20.07-24.15,20.07a29.78,29.78,0,0,1-11.9-2.55A17.62,17.62,0,0,0,58.39,71.67c6.29,1.7,16.67-.51,21.43-6.8L81.4,62.6l3.26,2.21Z"/><path class="cls-1" d="M134.85,26.11c-4.59,0-7.82,7-7.82,15.48,0,8.33,3.23,15.3,7.82,15.3,4.09,0,8.34-5.61,8.34-14.62C143.19,31.38,137.58,26.11,134.85,26.11Zm6,15.31a5.74,5.74,0,1,1-5.74-5.74A5.74,5.74,0,0,1,140.85,41.42Z"/><path class="cls-1" d="M135.84,0a53,53,0,1,0,53,53A53,53,0,0,0,135.84,0Zm-.48,84.27c-12.94,0-24.21-6.82-29.89-16.66h0l-.16-.28,0-.07v0l-1.11-2,3.37-2.41,1.24,1.79.08.07c4.76,6.3,15.13,8.51,21.42,6.81A17.65,17.65,0,0,0,142.51,59.1a29.82,29.82,0,0,1-11.91,2.55c-13.26,0-24.15-9-24.15-20.06,0-11.23,14.29-20.24,27.55-20.24,20.41,0,35.38,14.11,35.38,31.46S154.24,84.27,135.36,84.27Z"/></g></g></svg>