<svg xmlns="http://www.w3.org/2000/svg" viewBox="0 0 177.4 106.25"><defs><style>.cls-1{fill:#fbe8d4;}.cls-2{fill:#fff;}.cls-3{fill:#eb621d;}</style></defs><g id="Calque_2" data-name="Calque 2"><g id="Calque_1-2" data-name="Calque 1"><circle class="cls-1" cx="46.42" cy="42.85" r="5.75"/><circle class="cls-1" cx="116.67" cy="42.85" r="5.75"/><circle class="cls-2" cx="53.03" cy="53.03" r="53.03"/><circle class="cls-2" cx="124.37" cy="53.22" r="53.03"/><path class="cls-3" d="M58.12,61.84A29.87,29.87,0,0,1,46.2,59.29,17.64,17.64,0,0,0,58.46,71.71c6.3,1.71,16.69-.51,21.45-6.81l1.58-2.27,3.27,2.21-1.27,2.62c-5.62,10-17,17-30.14,17-18.9,0-34-14.13-34-31.49s15-31.5,35.42-31.5c13.27,0,27.58,9,27.58,20.26C82.3,52.82,71.4,61.84,58.12,61.84ZM53.86,26.26c-2.72,0-8.34,5.27-8.34,16.17,0,9,4.26,14.64,8.34,14.64,4.6,0,7.84-7,7.84-15.32C61.7,33.24,58.46,26.26,53.86,26.26Z"/><path class="cls-3" d="M93.76,67.52l-1.11-2L96,63.11l1.25,1.8.07.07c4.77,6.3,15.15,8.52,21.45,6.81a17.64,17.64,0,0,0,12.26-12.42,29.87,29.87,0,0,1-11.92,2.55c-13.28,0-24.17-9-24.17-20.09,0-11.24,14.3-20.26,27.58-20.26C143,21.57,158,35.7,158,53.07s-15.15,31.49-34,31.49c-13,0-24.24-6.82-29.93-16.68h0l-.16-.28a.16.16,0,0,0,0-.07Zm29.63-41.18c-4.6,0-7.83,7-7.83,15.49,0,8.34,3.23,15.32,7.83,15.32,4.08,0,8.34-5.62,8.34-14.64C131.73,31.61,126.11,26.34,123.39,26.34Z"/><circle class="cls-3" cx="53.39" cy="41.66" r="5.75"/><circle class="cls-3" cx="123.64" cy="41.66" r="5.75"/></g></g></svg>