<svg xmlns="http://www.w3.org/2000/svg" viewBox="0 0 176.09 98.67"><defs><style>.cls-1{fill:#eb621d;}</style></defs><g id="Calque_2" data-name="Calque 2"><g id="Calque_1-2" data-name="Calque 1"><path class="cls-1" d="M50.09,53.11c4.28,0,7.29-6.49,7.29-14.25,0-7.91-3-14.41-7.29-14.41-2.53,0-7.76,4.91-7.76,15.05C42.33,47.89,46.29,53.11,50.09,53.11ZM44.31,38.78a5.35,5.35,0,1,1,5.35,5.35A5.34,5.34,0,0,1,44.31,38.78Z"/><path class="cls-1" d="M125.86,24.31c-4.28,0-7.29,6.49-7.29,14.41,0,7.76,3,14.25,7.29,14.25,3.8,0,7.76-5.23,7.76-13.62C133.62,29.22,128.39,24.31,125.86,24.31Zm5.58,14.26a5.35,5.35,0,1,1-5.35-5.35A5.34,5.34,0,0,1,131.44,38.57Z"/><path class="cls-1" d="M126.77,0A49.21,49.21,0,0,0,88,18.83a49.32,49.32,0,1,0,0,61A49.31,49.31,0,1,0,126.77,0ZM77.64,62.77c-5.22,9.34-15.83,15.84-28,15.84C32,78.61,18,65.46,18,49.31S31.88,20,50.88,20c12.36,0,25.66,8.39,25.66,18.84,0,10.3-10.14,18.69-22.49,18.69A27.6,27.6,0,0,1,43,55.17a16.39,16.39,0,0,0,11.4,11.56c5.86,1.58,15.52-.47,19.95-6.33l1.47-2.12,2.9,2,.06.25Zm48.69,15.69c-12,0-22.54-6.35-27.83-15.51h0l-.15-.26,0-.06v0l-1-1.82v0l3.12-2.22,1.16,1.66.06.07c4.43,5.86,14.09,7.92,20,6.34A16.41,16.41,0,0,0,133,55,27.77,27.77,0,0,1,121.9,57.4c-12.35,0-22.49-8.39-22.49-18.68,0-10.45,13.3-18.84,25.66-18.84,19,0,32.93,13.14,32.93,29.29S143.91,78.46,126.33,78.46Z"/></g></g></svg>